<svg width="265" height="259" viewBox="0 0 265 259" fill="none" xmlns="http://www.w3.org/2000/svg">
<path d="M152.21 240.8L139.09 253.92C133.535 259.475 124.552 259.475 119.055 253.92L4.1665 139.09C-1.38883 133.535 -1.38883 124.552 4.1665 119.055L119.055 4.1665C124.611 -1.38883 133.594 -1.38883 139.09 4.1665L152.21 17.2865C157.824 22.901 157.706 32.0613 151.974 37.5576L80.7591 105.403H250.61C258.47 105.403 264.794 111.727 264.794 119.587V138.499C264.794 146.359 258.47 152.683 250.61 152.683H80.7591L151.974 220.529C157.765 226.025 157.884 235.185 152.21 240.8Z" fill="black"/>
</svg>
