<svg width="64" height="64" viewBox="0 0 64 64" fill="none" xmlns="http://www.w3.org/2000/svg">
<path d="M26.6593 29.3896C26.1619 29.7448 25.5225 29.958 24.7409 29.958H20.3359V25.3398H24.4567C24.8831 25.3398 25.2383 25.3398 25.5935 25.4108C25.9487 25.4818 26.2329 25.624 26.5171 25.766C26.8013 25.9792 27.0145 26.1924 27.1567 26.4764C27.2987 26.7606 27.3697 27.187 27.3697 27.6132C27.3697 28.3948 27.1567 29.0342 26.6593 29.3896Z" fill="white"/>
<path d="M26.1619 38.1987C25.8067 38.2697 25.3803 38.3409 24.9541 38.3409H20.3359V32.8701H25.0251C25.9487 32.8701 26.7303 33.0831 27.2987 33.5095C27.8671 34.0069 28.1513 34.7173 28.1513 35.7119C28.1513 36.2093 28.0093 36.6357 27.8671 36.9909C27.6539 37.3461 27.4409 37.5593 27.1567 37.7725C26.8725 37.9855 26.5171 38.1277 26.1619 38.1987Z" fill="white"/>
<path d="M40.9394 30.0283C41.863 30.0283 42.6446 30.3125 43.142 30.8097C43.6394 31.3071 43.9946 32.0177 44.1366 33.0833H37.7422C37.7422 32.8479 37.791 32.6125 37.8482 32.3367C37.86 32.2795 37.8722 32.2207 37.8844 32.1597C37.9554 31.8045 38.0974 31.4493 38.3816 31.1651C38.6658 30.8809 38.95 30.5967 39.3764 30.3835C39.8026 30.1703 40.3 30.0283 40.9394 30.0283Z" fill="white"/>
<path fill-rule="evenodd" clip-rule="evenodd" d="M10 0C4.47716 0 0 4.47716 0 10V54C0 59.5228 4.47716 64 10 64H54C59.5228 64 64 59.5228 64 54V10C64 4.47716 59.5228 0 54 0H10ZM27.8652 22.2842C27.0836 22.071 26.231 22 25.3074 22H16V41.6096H25.5206C26.3732 41.6096 27.2258 41.4674 28.0784 41.2544C28.931 41.0412 29.7124 40.686 30.352 40.2596C30.9914 39.8334 31.5598 39.194 31.915 38.4834C32.2702 37.773 32.4834 36.9204 32.4834 35.9256C32.4834 34.7178 32.1282 33.652 31.5598 32.7994C30.9914 31.9468 30.0678 31.3074 28.8598 30.9522C29.7124 30.526 30.423 29.9576 30.8492 29.318C31.3466 28.6786 31.5598 27.826 31.5598 26.8314C31.5598 25.9788 31.4176 25.1972 31.1334 24.5578C30.8492 23.9184 30.423 23.421 29.8546 23.0658C29.2862 22.7104 28.6468 22.4262 27.8652 22.2842ZM41.2224 39.1228C40.0856 39.1228 39.233 38.8386 38.6646 38.2702C38.0962 37.7018 37.67 36.6362 37.67 35.4994H47.9722C48.0432 34.3626 47.9722 33.3678 47.83 32.3732C47.5458 31.3784 47.1196 30.4548 46.5512 29.6734C45.9828 28.8208 45.2722 28.2524 44.3486 27.755C43.425 27.2576 42.3592 27.0444 41.1514 27.0444C40.0146 27.0444 39.091 27.2576 38.1674 27.6128C37.3148 27.9682 36.5332 28.5366 35.8938 29.176C35.2544 29.8864 34.757 30.668 34.4018 31.5916C34.0464 32.5152 33.9044 33.51 33.9044 34.5758C33.9044 35.7124 34.0464 36.7072 34.4018 37.6308C34.686 38.5544 35.1832 39.336 35.8228 39.9754C36.4622 40.686 37.1726 41.1832 38.0962 41.5386C39.02 41.8938 40.0146 42.107 41.1514 42.107C42.7856 42.107 44.1354 41.6806 45.2722 40.9702C46.409 40.1886 47.2616 38.9808 47.83 37.2756H44.3486C44.2066 37.7018 43.8512 38.1282 43.2828 38.5544C42.7144 38.9098 42.004 39.1228 41.2224 39.1228ZM44.846 23.35H36.8884V25.2682H44.846V23.35Z" fill="white"/>
</svg>
