<svg width="64" height="64" viewBox="0 0 64 64" fill="none" xmlns="http://www.w3.org/2000/svg">
<path d="M0 52V12C0 8.68889 1.17222 5.86111 3.51667 3.51667C5.86111 1.17222 8.68889 0 12 0H52C55.3111 0 58.1389 1.17222 60.4833 3.51667C62.8278 5.86111 64 8.68889 64 12V52C64 55.3111 62.8278 58.1389 60.4833 60.4833C58.1389 62.8278 55.3111 64 52 64H12C8.68889 64 5.86111 62.8278 3.51667 60.4833C1.17222 58.1389 0 55.3111 0 52ZM10.6667 52C10.6667 52.3556 10.8 52.6667 11.0667 52.9333C11.3333 53.2 11.6444 53.3333 12 53.3333H20C20.3556 53.3333 20.6667 53.2056 20.9333 52.95C21.2 52.6944 21.3333 52.3778 21.3333 52V25.3333C21.3333 24.9778 21.2 24.6667 20.9333 24.4C20.6667 24.1333 20.3556 24 20 24H12C11.6444 24 11.3333 24.1333 11.0667 24.4C10.8 24.6667 10.6667 24.9778 10.6667 25.3333V52ZM12.1667 12.1833C11.1667 13.1944 10.6667 14.4111 10.6667 15.8333C10.6667 17.2556 11.1667 18.4722 12.1667 19.4833C13.1667 20.4944 14.3778 21 15.8 21C17.2889 21 18.5111 20.4889 19.4667 19.4667C20.4667 18.4667 20.9667 17.2556 20.9667 15.8333C20.9667 14.4111 20.4611 13.1944 19.45 12.1833C18.4389 11.1722 17.2222 10.6667 15.8 10.6667C14.3778 10.6667 13.1667 11.1722 12.1667 12.1833ZM24 52C24 52.3556 24.2111 52.6667 24.6333 52.9333C25.0556 53.2 25.4778 53.3333 25.9 53.3333H33.5C33.8111 53.3333 34.0833 53.2 34.3167 52.9333C34.55 52.6667 34.6667 52.3556 34.6667 52V37.4667C34.6667 33.5778 36.2556 31.6333 39.4333 31.6333C40.7444 31.6333 41.6111 31.9222 42.0333 32.5C42.4556 33.0778 42.6667 34.1222 42.6667 35.6333V52C42.6667 52.3556 42.8333 52.6667 43.1667 52.9333C43.5 53.2 43.8667 53.3333 44.2667 53.3333H52C52.3556 53.3333 52.6667 53.2056 52.9333 52.95C53.2 52.6944 53.3333 52.3778 53.3333 52V33.9C53.3333 30.4111 52.3278 27.7389 50.3167 25.8833C48.3056 24.0278 45.4778 23.1 41.8333 23.1C39.3222 23.1 37.1333 23.7333 35.2667 25C34.8889 25.2222 34.6889 25.3889 34.6667 25.5C34.6667 24.5 34.1889 24 33.2333 24H25.9C25.4556 24 25.0278 24.1111 24.6167 24.3333C24.2056 24.5556 24 24.8333 24 25.1667V52Z" fill="white"/>
</svg>
