<svg width="293" height="78" viewBox="0 0 293 78" fill="none" xmlns="http://www.w3.org/2000/svg">
<path d="M78.888 61.576C75.304 61.576 72.5947 60.936 70.76 59.656C68.968 58.3333 68.072 56.7547 68.072 54.92C68.072 54.0667 68.264 53.384 68.648 52.872C69.0747 52.36 69.736 52.104 70.632 52.104C71.2293 52.104 71.7413 52.168 72.168 52.296C72.6373 52.424 73.128 52.5947 73.64 52.808C74.152 52.9787 74.7493 53.128 75.432 53.256C76.1573 53.384 77.032 53.448 78.056 53.448C79.976 53.448 81.6613 53.3627 83.112 53.192C84.5627 53.0213 85.8213 52.7867 86.888 52.488C87.9973 52.1467 89.0213 51.7413 89.96 51.272C89.6613 50.3333 88.9147 49.5013 87.72 48.776C86.568 48.0507 85.16 47.3467 83.496 46.664C81.8747 45.9813 80.168 45.256 78.376 44.488C76.6267 43.6773 74.9627 42.76 73.384 41.736C71.848 40.6693 70.5893 39.432 69.608 38.024C68.6693 36.5733 68.2 34.8667 68.2 32.904C68.2 30.8133 68.7973 28.872 69.992 27.08C71.1867 25.288 72.7653 23.688 74.728 22.28C76.6907 20.872 78.8027 19.6773 81.064 18.696C83.3253 17.672 85.5227 16.904 87.656 16.392C89.832 15.8373 91.7093 15.56 93.288 15.56C94.44 15.56 95.3573 15.7733 96.04 16.2C96.7653 16.584 97.2773 17.1173 97.576 17.8C97.9173 18.4827 98.088 19.2293 98.088 20.04C98.088 20.936 97.832 21.704 97.32 22.344C96.808 22.984 95.976 23.4107 94.824 23.624C91.1547 24.3493 87.9547 25.224 85.224 26.248C82.536 27.272 80.4667 28.36 79.016 29.512C77.5653 30.664 76.84 31.816 76.84 32.968C76.84 33.864 77.352 34.696 78.376 35.464C79.4427 36.1893 80.808 36.9147 82.472 37.64C84.136 38.3227 85.8853 39.0693 87.72 39.88C89.5973 40.6907 91.368 41.6293 93.032 42.696C94.696 43.72 96.0613 44.936 97.128 46.344C98.1947 47.7093 98.728 49.352 98.728 51.272C98.728 53.064 98.2587 54.6 97.32 55.88C96.3813 57.16 95.016 58.2267 93.224 59.08C91.4747 59.9333 89.384 60.5733 86.952 61C84.5627 61.384 81.8747 61.576 78.888 61.576ZM113.995 61.64C111.862 61.64 110.006 61.2133 108.427 60.36C106.848 59.5067 105.611 58.312 104.715 56.776C103.819 55.1973 103.371 53.384 103.371 51.336C103.371 49.2027 103.712 47.048 104.395 44.872C105.12 42.6533 106.102 40.5413 107.339 38.536C108.576 36.5307 110.027 34.76 111.691 33.224C113.355 31.6453 115.147 30.408 117.067 29.512C118.987 28.616 120.95 28.168 122.955 28.168C124.363 28.168 125.536 28.5947 126.475 29.448C127.414 30.3013 127.883 31.5173 127.883 33.096C127.883 33.736 127.691 34.248 127.307 34.632C126.966 34.9733 126.496 35.208 125.899 35.336C123.083 35.7627 120.608 36.8293 118.475 38.536C116.342 40.2 114.656 42.2267 113.419 44.616C112.224 46.9627 111.627 49.416 111.627 51.976C111.627 52.872 111.691 53.704 111.819 54.472C111.99 55.1973 112.31 56.136 112.779 57.288L108.747 51.464C109.771 52.2747 110.646 52.8293 111.371 53.128C112.139 53.4267 113.056 53.576 114.123 53.576C116.512 53.576 118.688 52.1253 120.651 49.224C122.614 46.3227 124.022 42.0987 124.875 36.552C125.046 35.6133 125.451 34.888 126.091 34.376C126.731 33.8213 127.499 33.544 128.395 33.544C129.846 33.544 131.083 33.9707 132.107 34.824C133.131 35.6773 133.814 36.7653 134.155 38.088C134.795 40.2213 135.392 42.184 135.947 43.976C136.502 45.7253 137.206 47.4107 138.059 49.032C138.955 50.6107 140.128 52.2747 141.579 54.024C142.091 54.6213 142.347 55.3253 142.347 56.136C142.39 56.9467 142.24 57.7787 141.899 58.632C141.6 59.4427 141.131 60.1253 140.491 60.68C139.894 61.192 139.147 61.448 138.251 61.448C137.526 61.448 136.928 61.2987 136.459 61C136.032 60.744 135.648 60.424 135.307 60.04C134.411 58.888 133.6 57.7787 132.875 56.712C132.15 55.6027 131.488 54.408 130.891 53.128C130.294 51.8053 129.739 50.312 129.227 48.648C128.715 46.9413 128.246 44.9573 127.819 42.696L130.827 42.504C130.059 46.088 129.056 49.1173 127.819 51.592C126.624 54.024 125.259 55.9867 123.723 57.48C122.23 58.9307 120.651 59.9973 118.987 60.68C117.323 61.32 115.659 61.64 113.995 61.64ZM178.833 61.64C177.211 61.64 175.803 60.9787 174.609 59.656C173.414 58.2907 172.497 56.2213 171.857 53.448C171.217 50.632 170.897 47.0693 170.897 42.76C170.897 41.3947 170.854 40.264 170.769 39.368C170.726 38.472 170.619 37.7467 170.449 37.192C170.278 36.6373 170.022 36.168 169.681 35.784C169.382 35.4 168.977 35.0373 168.465 34.696C169.489 34.696 170.342 34.8027 171.025 35.016C171.75 35.1867 172.283 35.5707 172.625 36.168C172.966 36.7227 173.115 37.5547 173.073 38.664C172.39 37.768 171.793 37.1493 171.281 36.808C170.811 36.4667 170.278 36.296 169.681 36.296C168.87 36.296 167.931 36.808 166.865 37.832C165.798 38.8133 164.667 40.2213 163.473 42.056C162.321 43.848 161.19 46.0027 160.081 48.52C159.014 51.0373 158.033 53.832 157.137 56.904C156.625 58.696 156.049 59.9333 155.409 60.616C154.769 61.256 153.894 61.576 152.785 61.576C150.865 61.576 149.457 60.616 148.561 58.696C147.665 56.776 147.217 54.3227 147.217 51.336C147.217 49.2027 147.302 47.3467 147.473 45.768C147.686 44.1893 147.899 42.7173 148.113 41.352C148.369 39.9867 148.582 38.6 148.753 37.192C148.966 35.7413 149.073 34.12 149.073 32.328C149.073 31.048 149.371 30.088 149.969 29.448C150.566 28.808 151.441 28.488 152.593 28.488C153.873 28.488 154.854 28.9147 155.537 29.768C156.262 30.5787 156.625 31.9227 156.625 33.8C156.625 35.1227 156.518 36.3387 156.305 37.448C156.134 38.5147 155.921 39.688 155.665 40.968C155.409 42.2053 155.195 43.6987 155.025 45.448C154.854 47.1547 154.811 49.2667 154.897 51.784L152.913 49.864C154.363 45.0427 156.049 41.032 157.969 37.832C159.931 34.632 162.001 32.2213 164.177 30.6C166.353 28.9787 168.486 28.168 170.577 28.168C173.265 28.168 175.27 29.064 176.593 30.856C177.958 32.648 178.641 35.0373 178.641 38.024C178.641 41.1387 178.705 43.784 178.833 45.96C178.961 48.136 179.217 49.9067 179.601 51.272C180.027 52.6373 180.646 53.704 181.457 54.472C181.969 54.984 182.353 55.5173 182.609 56.072C182.865 56.584 182.993 57.2453 182.993 58.056C182.993 58.952 182.63 59.784 181.905 60.552C181.222 61.2773 180.198 61.64 178.833 61.64ZM188.924 77.64C186.662 77.64 184.913 77.064 183.675 75.912C182.395 74.8027 181.755 73.4587 181.755 71.88C181.755 70.856 182.011 70.0667 182.523 69.512C182.993 68.9573 183.633 68.68 184.444 68.68C184.828 68.68 185.169 68.7227 185.468 68.808C185.809 68.936 186.15 69.064 186.492 69.192C186.876 69.32 187.302 69.384 187.772 69.384C188.753 69.384 189.521 68.8933 190.076 67.912C190.63 66.9733 190.908 65.6507 190.908 63.944C190.908 59.8053 190.737 56.2213 190.396 53.192C190.054 50.1627 189.67 47.5173 189.244 45.256C188.817 42.9947 188.433 40.968 188.092 39.176C187.793 37.3413 187.644 35.5707 187.644 33.864C187.644 31.944 188.028 30.5147 188.796 29.576C189.564 28.6373 190.609 28.168 191.932 28.168C192.956 28.168 193.788 28.488 194.428 29.128C195.11 29.768 195.622 30.9413 195.964 32.648C196.689 36.5733 197.286 40.2853 197.756 43.784C198.225 47.24 198.566 50.632 198.78 53.96C198.993 57.288 199.1 60.6587 199.1 64.072C199.1 68.552 198.182 71.9227 196.348 74.184C194.513 76.488 192.038 77.64 188.924 77.64ZM192.764 23.944C190.758 23.944 189.137 23.4107 187.9 22.344C186.662 21.2773 186.044 19.976 186.044 18.44C186.044 16.904 186.577 15.7093 187.644 14.856C188.71 13.96 190.076 13.512 191.74 13.512C193.062 13.512 194.172 13.8107 195.068 14.408C196.006 15.0053 196.71 15.752 197.18 16.648C197.649 17.5013 197.884 18.3973 197.884 19.336C197.884 20.4027 197.478 21.448 196.668 22.472C195.9 23.4533 194.598 23.944 192.764 23.944ZM211.786 61.64C210.719 61.64 209.845 61.4053 209.162 60.936C208.479 60.4667 207.967 59.784 207.626 58.888C207.327 57.992 207.178 56.9893 207.178 55.88C207.178 52.936 207.157 50.44 207.114 48.392C207.114 46.344 207.093 44.5733 207.05 43.08C207.05 41.544 207.029 40.1147 206.986 38.792C206.986 37.4693 206.986 36.0613 206.986 34.568C206.986 33.416 207.157 32.392 207.498 31.496C207.839 30.5573 208.415 29.8107 209.226 29.256C210.037 28.7013 211.061 28.424 212.298 28.424C213.578 28.424 214.602 28.8507 215.37 29.704C216.181 30.5573 216.607 31.88 216.65 33.672C216.65 34.568 216.629 35.8053 216.586 37.384C216.543 38.92 216.479 40.648 216.394 42.568C216.351 44.488 216.309 46.408 216.266 48.328C216.223 50.2053 216.181 51.9547 216.138 53.576C216.095 55.1973 216.074 56.4773 216.074 57.416C216.074 58.6533 215.733 59.6773 215.05 60.488C214.367 61.256 213.279 61.64 211.786 61.64ZM212.554 23.944C210.549 23.944 208.927 23.4107 207.69 22.344C206.453 21.2773 205.834 19.976 205.834 18.44C205.834 16.904 206.367 15.7093 207.434 14.856C208.501 13.96 209.866 13.512 211.53 13.512C212.853 13.512 213.962 13.8107 214.858 14.408C215.797 15.0053 216.501 15.752 216.97 16.648C217.439 17.5013 217.674 18.3973 217.674 19.336C217.674 20.4027 217.269 21.448 216.458 22.472C215.69 23.4533 214.389 23.944 212.554 23.944ZM239.751 61.832C236.124 61.832 233.223 61.0427 231.047 59.464C228.871 57.8427 227.292 55.5813 226.311 52.68C225.372 49.7787 224.903 46.408 224.903 42.568C224.903 40.392 225.009 38.4293 225.223 36.68C225.436 34.9307 225.649 33.2667 225.863 31.688C226.119 30.1093 226.289 28.4453 226.375 26.696C226.503 24.8613 226.524 23.368 226.439 22.216C226.353 21.0213 226.332 19.912 226.375 18.888C226.417 17.992 226.716 17.2027 227.271 16.52C227.868 15.7947 228.785 15.432 230.023 15.432C231.815 15.432 233.116 16.2 233.927 17.736C234.737 19.272 235.057 21.7893 234.887 25.288C234.801 26.696 234.673 28.04 234.503 29.32C234.332 30.5573 234.14 31.8373 233.927 33.16C233.756 34.44 233.585 35.8267 233.415 37.32C233.287 38.7707 233.223 40.4133 233.223 42.248C233.223 45.064 233.5 47.304 234.055 48.968C234.609 50.632 235.441 51.8267 236.551 52.552C237.66 53.2347 239.025 53.576 240.647 53.576C241.671 53.576 242.481 53.4907 243.079 53.32C243.676 53.1067 244.188 52.9147 244.615 52.744C245.084 52.5307 245.617 52.424 246.215 52.424C247.068 52.424 247.729 52.68 248.199 53.192C248.668 53.704 248.903 54.4933 248.903 55.56C248.903 57.2667 248.156 58.7387 246.663 59.976C245.212 61.2133 242.908 61.832 239.751 61.832ZM232.519 38.536C230.983 39.176 229.788 39.176 228.935 38.536C228.081 37.8533 227.655 36.872 227.655 35.592C227.655 34.4827 227.889 33.48 228.359 32.584C228.828 31.688 229.98 30.8987 231.815 30.216C233.479 29.6187 235.335 29.128 237.383 28.744C239.473 28.36 241.436 28.168 243.271 28.168C245.319 28.168 246.769 28.5733 247.623 29.384C248.519 30.1947 248.967 31.2187 248.967 32.456C248.967 33.4373 248.668 34.184 248.071 34.696C247.473 35.208 246.663 35.5067 245.639 35.592C243.761 35.72 242.097 35.912 240.647 36.168C239.239 36.3813 237.895 36.68 236.615 37.064C235.335 37.448 233.969 37.9387 232.519 38.536ZM260.032 61.512C258.965 61.512 258.026 61.192 257.216 60.552C256.405 59.912 255.765 58.9733 255.296 57.736C254.869 56.4987 254.656 55.048 254.656 53.384C254.656 49.2027 254.848 45.448 255.232 42.12C255.616 38.792 256.021 35.784 256.448 33.096C256.874 30.3653 257.152 27.8693 257.28 25.608C257.322 24.072 257.301 22.7493 257.216 21.64C257.173 20.5307 257.088 19.528 256.96 18.632C256.874 17.6933 256.853 16.7547 256.896 15.816C256.938 14.92 257.237 14.1307 257.792 13.448C258.346 12.7227 259.264 12.36 260.544 12.36C261.738 12.36 262.741 12.744 263.552 13.512C264.362 14.2373 264.96 15.496 265.344 17.288C265.77 19.0373 265.92 21.4053 265.792 24.392C265.621 26.4827 265.344 28.7653 264.96 31.24C264.576 33.7147 264.213 36.5093 263.872 39.624C263.573 42.696 263.445 46.1733 263.488 50.056L261.568 47.048C263.402 42.5253 265.152 38.856 266.816 36.04C268.522 33.224 270.229 31.176 271.936 29.896C273.642 28.5733 275.349 27.912 277.056 27.912C279.274 27.912 280.981 28.552 282.176 29.832C283.413 31.112 284.33 32.9467 284.928 35.336C285.568 37.6827 286.058 40.5413 286.4 43.912C286.656 46.3013 286.933 48.2213 287.232 49.672C287.573 51.08 287.914 52.2107 288.256 53.064C288.64 53.8747 289.024 54.6213 289.408 55.304C289.621 55.688 289.792 56.1147 289.92 56.584C290.09 57.0533 290.176 57.5227 290.176 57.992C290.176 59.1013 289.813 59.9973 289.088 60.68C288.405 61.3627 287.445 61.704 286.208 61.704C284.714 61.704 283.477 61.192 282.496 60.168C281.514 59.144 280.725 57.7573 280.128 56.008C279.53 54.2587 279.104 52.296 278.848 50.12C278.592 47.6027 278.336 45.5547 278.08 43.976C277.824 42.3547 277.546 41.032 277.248 40.008C276.949 38.984 276.586 38.0667 276.16 37.256C275.392 37.512 274.346 38.5147 273.024 40.264C271.701 42.0133 270.25 44.4453 268.672 47.56C267.093 50.6747 265.514 54.3867 263.936 58.696C263.466 59.8053 262.933 60.552 262.336 60.936C261.738 61.32 260.97 61.512 260.032 61.512Z" fill="#274BC8"/>
<path fill-rule="evenodd" clip-rule="evenodd" d="M39.1703 34.0763C42.1029 35.2673 41.8792 39.4918 38.8371 40.3663L23.4871 44.7787L16.4763 59.1294C15.0869 61.9733 10.8875 61.4601 10.2239 58.3654L3.07725 25.0369C2.51637 22.4213 5.11082 20.2443 7.58932 21.2508L39.1703 34.0763Z" fill="#274BC8" stroke="#274BC8" stroke-width="4.96586"/>
</svg>
